<svg id="visual" viewBox="0 0 900 600" width="900" height="600" xmlns="http://www.w3.org/2000/svg" xmlns:xlink="http://www.w3.org/1999/xlink" version="1.1"><rect width="900" height="600" fill="#c49a5b"></rect><g><g transform="translate(38 199)"><path d="M50.9 -15.1C58 5.3 50.2 31.9 30.6 47.4C10.9 63 -20.6 67.4 -39.1 53.9C-57.7 40.5 -63.1 9.1 -54.4 -13.5C-45.7 -36.1 -22.9 -50 -0.5 -49.8C21.9 -49.7 43.8 -35.5 50.9 -15.1Z" stroke="#f0cac7" fill="none" stroke-width="20"></path></g><g transform="translate(727 488)"><path d="M42.8 -11.7C51.6 13.2 52.2 43 34.5 58.5C16.8 74 -19.3 75.1 -39.5 59.3C-59.7 43.5 -63.9 10.7 -54.7 -14.8C-45.4 -40.3 -22.7 -58.4 -2.9 -57.4C17 -56.5 34 -36.5 42.8 -11.7Z" stroke="#f0cac7" fill="none" stroke-width="20"></path></g><g transform="translate(680 221)"><path d="M53.3 -18.8C60 3.3 50.1 29.3 32 42C13.8 54.7 -12.5 54.1 -29.2 41.7C-45.9 29.2 -52.8 4.9 -46.4 -16.9C-39.9 -38.8 -19.9 -58.1 1.7 -58.7C23.3 -59.2 46.6 -41 53.3 -18.8Z" stroke="#f0cac7" fill="none" stroke-width="20"></path></g><g transform="translate(432 129)"><path d="M38.4 -11.1C44.2 5.3 39.4 26.5 26.3 36C13.2 45.4 -8.2 43.1 -22.2 32.5C-36.2 21.9 -42.8 2.9 -37.9 -12.4C-33 -27.7 -16.5 -39.4 -0.1 -39.4C16.3 -39.3 32.6 -27.6 38.4 -11.1Z" stroke="#f0cac7" fill="none" stroke-width="20"></path></g><g transform="translate(465 496)"><path d="M63.3 -21C69.6 -1.3 53.6 25.2 30.5 41.9C7.5 58.6 -22.6 65.5 -37.6 54C-52.7 42.5 -52.9 12.7 -44.1 -10.5C-35.3 -33.7 -17.7 -50.1 5.4 -51.9C28.5 -53.7 57.1 -40.7 63.3 -21Z" stroke="#f0cac7" fill="none" stroke-width="20"></path></g></g></svg>